<svg version="1.1" id="Layer_1" xmlns="http://www.w3.org/2000/svg" xmlns:xlink="http://www.w3.org/1999/xlink" x="0px" y="0px"
	 width="100%" viewBox="0 0 565 556" enable-background="new 0 0 565 556" xml:space="preserve">
<path fill="#1E4469" opacity="1.000000" stroke="none" 
	d="
M566.000000,206.000000 
	C566.000000,323.333313 566.000000,440.166626 566.000000,557.000000 
	C377.666718,557.000000 189.333405,557.000000 1.000082,557.000000 
	C1.000055,371.666718 1.000055,186.333450 1.000027,1.000132 
	C189.333252,1.000088 377.666504,1.000088 565.999878,1.000044 
	C566.000000,69.166664 566.000000,137.333328 566.000000,206.000000 
M464.827820,106.870293 
	C464.827820,106.870293 464.824463,106.937439 464.403412,107.286652 
	C464.212585,107.790283 464.021729,108.293907 463.776642,108.832748 
	C463.776642,108.832748 463.768250,108.896858 463.357605,109.187706 
	C463.208069,109.646919 463.058533,110.106125 462.459229,111.136673 
	C418.444214,194.856384 374.429199,278.576111 329.894531,363.284271 
	C328.004150,360.333527 326.817505,358.754181 325.912018,357.027405 
	C309.154175,325.069031 292.435150,293.090363 275.697418,261.121460 
	C248.839111,209.822403 221.982529,158.522446 195.104950,107.233498 
	C186.457306,90.731682 177.745712,74.263374 168.969513,57.268486 
	C168.692078,57.084938 168.414642,56.901390 168.109375,56.791264 
	C168.109375,56.791264 168.187302,56.800808 167.531982,56.238811 
	C160.346512,56.238811 153.161026,56.238811 145.454178,56.238811 
	C146.063477,57.504002 146.452759,58.312332 146.973404,59.823990 
	C155.886932,76.748642 164.832077,93.656731 173.707626,110.601280 
	C194.083359,149.501144 214.420273,188.421356 234.782135,227.328506 
	C255.910736,267.700745 277.015961,308.085327 298.206421,348.425110 
	C304.310181,360.044647 310.673126,371.528046 316.980499,383.648346 
	C317.288513,384.131500 317.596558,384.614624 318.389771,385.714539 
	C325.346313,385.930359 332.302521,386.160126 339.260498,386.310120 
	C339.532898,386.316010 339.821777,385.559753 340.588379,384.780762 
	C340.751251,384.195312 340.914093,383.609863 341.013214,383.010162 
	C341.013214,383.010162 341.035065,383.071686 341.611176,382.808075 
	C341.792572,382.211548 341.973969,381.615021 342.039948,381.027252 
	C342.039948,381.027252 342.051880,381.142426 342.575012,380.945068 
	C342.681152,380.603851 342.787292,380.262634 343.296356,379.363159 
	C361.828827,344.318481 380.348389,309.266998 398.898834,274.231842 
	C409.219849,254.739166 419.592224,235.273727 430.415466,215.519516 
	C430.575562,215.013184 430.735657,214.506851 430.876373,213.911499 
	C430.876373,213.911499 430.962677,213.882278 431.435547,213.575485 
	C431.623444,213.059570 431.811371,212.543640 431.984650,212.000336 
	C431.984650,212.000336 432.014771,211.992859 432.692719,211.829407 
	C433.413879,210.169891 434.135010,208.510391 434.913666,206.929260 
	C434.913666,206.929260 434.819458,206.905273 435.471100,206.659134 
	C437.265747,203.057037 439.060394,199.454926 440.890839,195.919479 
	C440.890839,195.919479 440.817871,195.939392 441.324707,195.581131 
	C441.491974,195.010468 441.659241,194.439789 441.929291,193.450821 
	C441.929291,193.450821 442.114258,193.061798 442.528961,192.737915 
	C442.660156,192.419067 442.791321,192.100220 442.965363,191.402603 
	C442.965363,191.402603 443.110352,191.050064 443.482117,190.752121 
	C443.711609,190.510437 443.827332,190.222992 443.835999,189.831940 
	C443.835999,189.831940 443.893005,189.819931 444.578583,189.732483 
	C445.016296,188.756195 445.454010,187.779892 445.962189,186.430634 
	C445.962189,186.430634 446.125397,186.087967 446.529694,185.781326 
	C446.658691,185.475082 446.787689,185.168854 446.933624,184.937576 
	C446.933624,184.937576 446.859497,184.917313 447.570557,184.747360 
	C448.020966,183.439880 448.471344,182.132416 448.978699,180.430847 
	C448.978699,180.430847 449.127258,180.061401 449.504425,179.746735 
	C449.732849,179.489380 449.843018,179.188705 450.002502,178.924667 
	C450.002502,178.924667 449.840576,178.828262 450.534027,178.759659 
	C452.237366,175.019470 453.940674,171.279282 455.712708,167.192368 
	C455.712708,167.192368 455.945404,166.926300 456.633209,166.797195 
	C457.660797,164.411880 458.688416,162.026550 459.797791,159.265564 
	C459.797791,159.265564 460.027405,158.957214 460.689545,158.811951 
	C462.098114,155.861282 463.506683,152.910614 464.953644,149.954636 
	C464.953644,149.954636 464.934204,149.921112 465.386810,149.552063 
	C465.505157,149.186966 465.623505,148.821854 465.746521,148.178864 
	C465.746521,148.178864 465.943909,147.983215 466.637756,147.790970 
	C467.009277,146.738205 467.380768,145.685440 467.810974,144.284973 
	C467.810974,144.284973 468.026031,144.005508 468.699219,143.841309 
	C469.807281,141.273926 470.915314,138.706543 471.971802,136.047440 
	C471.971802,136.047440 472.063049,135.995026 472.723572,135.820053 
	C473.812134,133.546295 474.900696,131.272537 475.998779,128.998199 
	C475.998779,128.998199 475.994415,128.988449 476.662415,128.835785 
	C478.330780,125.113144 479.999146,121.390511 481.794342,117.249771 
	C481.794342,117.249771 482.059784,116.902718 482.736664,116.840668 
	C485.006042,113.169388 487.140961,109.404358 489.605927,105.869476 
	C490.709351,104.287102 492.474609,103.166237 494.114746,102.779785 
	C494.114746,235.348221 494.114746,367.916656 494.114746,500.847351 
	C500.697968,500.847351 506.809875,500.847351 513.451538,500.787018 
	C513.468079,500.478149 513.484619,500.169250 513.557556,498.943085 
	C513.554871,352.724701 513.552246,206.506302 513.850037,59.433357 
	C513.290466,58.291290 512.720093,56.152325 512.172974,56.158260 
	C505.143677,56.234463 498.117706,56.616955 490.748444,57.501541 
	C490.321899,58.286335 489.895355,59.071129 489.173065,60.064247 
	C489.008392,60.265907 488.952148,60.494381 488.780060,61.250538 
	C488.699799,61.414932 488.619537,61.579330 488.228333,61.945759 
	C488.055328,62.142056 487.982574,62.370308 487.695496,63.196857 
	C487.586090,63.383026 487.476715,63.569199 487.123566,63.996277 
	C486.994751,64.197380 486.947144,64.416229 486.757996,65.060928 
	C486.757996,65.060928 486.560852,65.481987 486.182922,65.817841 
	C486.092712,66.135468 486.002502,66.453094 485.828735,66.878441 
	C485.828735,66.878441 485.783356,67.007027 485.353851,67.347313 
	C485.188965,67.867065 485.024048,68.386810 484.418518,69.432045 
	C482.761292,72.594391 481.104065,75.756737 479.170441,79.126999 
	C479.020111,79.325394 478.973022,79.545967 478.840820,80.207054 
	C478.840820,80.207054 478.676971,80.635567 478.264801,80.921707 
	C478.171478,81.234070 478.078156,81.546440 477.766449,82.280594 
	C477.766449,82.280594 477.549316,82.703041 477.203949,82.955528 
	C477.015167,83.190880 476.937805,83.458488 476.757568,84.180496 
	C476.757568,84.180496 476.553314,84.607574 476.199890,84.873688 
	C476.010864,85.116226 475.926239,85.390907 475.814667,85.930283 
	C475.814667,85.930283 475.715179,86.178177 475.331787,86.455772 
	C475.185608,86.906281 475.039429,87.356789 474.832611,87.878380 
	C474.832611,87.878380 474.815887,87.970276 474.401886,88.308136 
	C474.208771,88.796265 474.015656,89.284401 473.763672,89.823631 
	C473.763672,89.823631 473.745789,89.899521 473.317352,90.232391 
	C473.153229,90.739937 472.989105,91.247482 472.353058,92.270935 
	C471.387970,94.158249 470.422882,96.045570 469.162109,98.144218 
	C468.998779,98.351921 468.950958,98.583618 468.843170,99.233940 
	C468.843170,99.233940 468.695862,99.639969 468.303833,99.902786 
	C468.090607,100.158592 468.003387,100.451859 467.757690,101.268326 
	C467.657196,101.426796 467.556732,101.585258 467.162964,101.984756 
	C467.005371,102.201591 466.948944,102.442215 466.777802,103.169930 
	C466.704712,103.323845 466.631653,103.477753 466.185791,103.906540 
	C465.987274,104.162285 465.901733,104.451439 465.703430,105.148834 
	C465.703430,105.148834 465.493286,105.532639 465.140045,105.881607 
	C464.964264,106.172035 464.877197,106.486984 464.827820,106.870293 
M191.941559,185.365158 
	C191.649261,185.047913 191.356964,184.730652 191.168457,184.230728 
	C191.168457,184.230728 191.016739,184.085373 190.958054,183.448639 
	C190.675751,183.144196 190.393463,182.839737 190.137268,182.296890 
	C190.137268,182.296890 189.961807,182.133423 189.910156,181.463943 
	C189.614883,181.138687 189.319626,180.813431 189.094116,180.325012 
	C189.094116,180.325012 188.958099,180.211060 188.921692,179.522598 
	C188.310043,178.608322 187.698395,177.694031 186.980560,176.083969 
	C166.476303,137.075821 145.981873,98.062500 125.420792,59.084328 
	C124.798088,57.903851 123.510635,56.277023 122.480484,56.237724 
	C115.756210,55.981216 109.017395,56.105824 101.370064,56.105824 
	C102.764397,59.252747 103.622940,61.552078 104.759926,63.704311 
	C146.291962,142.321259 187.899368,220.898453 229.377258,299.543945 
	C243.811462,326.912384 257.934204,354.445099 272.302246,382.413727 
	C272.514252,382.696381 272.726257,382.979065 273.071808,383.360809 
	C273.071808,383.360809 273.005981,383.513519 273.204224,384.115845 
	C273.491913,384.414978 273.779602,384.714081 274.002838,384.997528 
	C274.002838,384.997528 274.021912,384.933929 274.266632,385.683716 
	C281.331696,385.807800 288.396729,385.937103 295.462311,386.018951 
	C295.605988,386.020569 295.756073,385.469604 296.386627,384.788574 
	C295.673431,383.170319 294.960236,381.552063 294.106995,379.217560 
	C293.306915,377.575378 292.556000,375.907074 291.699280,374.294983 
	C280.858124,353.895111 270.009277,333.499298 259.147522,313.110382 
	C243.317566,283.395599 227.475555,253.687271 211.468948,223.327698 
	C210.330643,221.193405 209.192337,219.059128 208.058502,216.993866 
	C208.058502,216.993866 208.114960,216.953918 208.078461,216.228500 
	C206.386444,213.139694 204.694427,210.050888 202.980148,207.006531 
	C202.980148,207.006531 203.028931,207.016144 202.974213,206.423889 
	C202.668793,206.255737 202.363358,206.087585 202.023727,205.995621 
	C202.023727,205.995621 202.088806,205.943283 202.246445,205.207291 
	C200.523819,202.096680 198.801178,198.986053 197.046036,195.958344 
	C197.046036,195.958344 197.130325,195.987122 197.093155,195.303772 
	C196.409363,194.172882 195.725571,193.041992 195.017105,191.984100 
	C195.017105,191.984100 195.090576,192.007370 195.047501,191.387650 
	C194.702560,190.902481 194.357620,190.417313 193.994156,189.999603 
	C193.994156,189.999603 194.061813,190.017380 194.006821,189.407227 
	C193.673248,188.916870 193.339676,188.426498 192.983124,188.002701 
	C192.983124,188.002701 193.049316,188.026688 193.009644,187.417419 
	C192.671127,186.930145 192.332611,186.442871 191.970383,186.008209 
	C191.970383,186.008209 192.025772,186.024384 191.941559,185.365158 
M445.996582,59.998501 
	C445.996582,59.998501 445.992950,60.004963 445.556274,60.366638 
	C445.367249,60.884136 445.178253,61.401638 444.469788,62.380108 
	C419.015289,110.801445 393.565643,159.225327 368.104584,207.643204 
	C352.325409,237.649567 337.285706,268.084473 320.327484,297.409485 
	C314.435516,307.598145 314.808960,314.791870 321.230743,323.216583 
	C322.740082,325.196655 324.029816,327.344116 326.018768,330.305115 
	C331.500275,320.003967 336.376892,310.976746 341.128113,301.883942 
	C353.122498,278.929504 364.972229,255.899109 377.042267,232.984634 
	C393.671875,201.413986 410.420197,169.905701 427.181183,138.404495 
	C433.646118,126.254021 440.398743,114.256027 446.814819,102.080276 
	C454.068359,88.315315 461.090851,74.428619 468.673798,60.166512 
	C469.040649,58.969528 469.407532,57.772541 469.956238,55.982189 
	C462.649963,55.982189 455.880493,55.923611 449.115509,56.070782 
	C448.422028,56.085869 447.755280,57.332420 446.862610,58.269676 
	C446.862610,58.269676 446.827209,58.605907 446.344330,58.918015 
	C446.229187,59.275791 446.114075,59.633568 445.996582,59.998501 
M173.193832,309.276489 
	C173.126602,312.783600 173.001541,316.290680 173.000778,319.797791 
	C172.988266,377.579346 172.981644,435.360901 173.027328,493.142426 
	C173.029129,495.415100 173.563782,497.687408 174.320770,500.712891 
	C180.575668,500.712891 186.830582,500.712891 193.051132,500.712891 
	C193.139709,499.802246 193.230225,499.305542 193.230362,498.808868 
	C193.244064,447.145996 193.254456,395.483124 193.238678,343.820251 
	C193.238281,342.506653 193.305084,341.006348 192.734192,339.908386 
	C186.810043,328.514832 180.761261,317.186127 174.342163,305.075409 
	C174.098160,307.052063 173.977234,308.031616 173.193832,309.276489 
M135.254044,499.803894 
	C141.610672,500.358643 147.967300,500.913361 154.778946,501.507812 
	C154.778946,498.561310 154.778931,496.759918 154.778961,494.958557 
	C154.780380,428.324402 154.244278,361.683136 155.121918,295.060516 
	C155.374054,275.919220 152.634003,258.621368 141.803604,242.776581 
	C139.545639,239.473190 137.910751,235.743896 135.524353,231.357300 
	C135.256927,233.706421 135.126144,234.855179 134.559982,236.534622 
	C134.704071,238.022308 134.848145,239.509979 135.191849,241.736359 
	C135.124710,242.492249 135.057571,243.248138 134.516678,244.681854 
	C134.344666,246.320602 134.022690,247.959290 134.022202,249.598083 
	C133.998154,330.812012 133.994766,412.025970 134.044113,493.239868 
	C134.045273,495.159271 134.671677,497.078278 135.254044,499.803894 
M116.583282,498.279694 
	C116.726059,496.633301 116.993477,494.986938 116.993782,493.340515 
	C117.012192,395.142242 117.015015,296.943970 116.959457,198.745712 
	C116.958389,196.850296 116.244980,194.955292 115.292526,192.677887 
	C109.459335,181.589752 103.626144,170.501602 97.103127,158.102203 
	C97.103127,273.645538 97.103127,387.616455 97.103127,501.973755 
	C102.233871,501.973755 107.047447,502.208984 111.813522,501.836548 
	C113.328476,501.718140 114.717003,499.982147 116.583282,498.279694 
M455.890625,500.649750 
	C462.135406,500.649750 468.380157,500.649750 474.516479,500.649750 
	C474.516479,385.842926 474.516479,271.321411 474.516479,155.852737 
	C468.714996,166.505997 463.406158,176.254593 457.391327,186.140625 
	C456.677887,186.776489 455.451141,187.331985 455.336914,188.061646 
	C454.736603,191.896545 454.056274,195.775223 454.053650,199.639130 
	C453.987091,297.552429 453.994049,395.465729 454.052429,493.379028 
	C454.053741,495.584137 454.801056,497.788757 455.890625,500.649750 
M58.240715,501.669983 
	C64.427895,501.321381 70.615074,500.972748 77.273010,500.597595 
	C77.273010,365.326935 77.273010,230.184860 77.273010,95.042793 
	C77.606659,94.951439 77.940315,94.860085 78.273964,94.768723 
	C129.255951,191.484695 180.237930,288.200684 231.125870,384.738220 
	C238.343613,384.738220 245.263626,384.738220 252.697662,384.738220 
	C251.859604,383.038971 251.245697,381.717407 250.567322,380.429779 
	C214.520432,312.011536 178.399521,243.632217 142.443039,175.166519 
	C122.021912,136.282120 101.877243,97.252541 81.545250,58.321163 
	C81.066299,57.404079 79.830833,56.252434 78.965240,56.266380 
	C71.927818,56.379749 64.894447,56.745327 57.430252,57.730476 
	C57.284508,59.378113 57.011391,61.025734 57.011143,62.673393 
	C56.989529,206.826950 56.985580,350.980530 57.022625,495.134094 
	C57.023125,497.076416 57.560436,499.018585 58.240715,501.669983 
M349.307648,200.873444 
	C374.766144,152.819366 400.224640,104.765305 426.008148,56.097809 
	C419.356873,56.097809 413.854919,56.317146 408.381561,56.016087 
	C405.062805,55.833546 403.401733,56.998089 401.867554,59.923344 
	C386.272156,89.658920 370.519501,119.312057 354.795898,148.980347 
	C334.634247,187.022720 314.437103,225.046356 294.361206,263.133911 
	C293.472626,264.819702 292.752502,267.484039 293.464325,268.968140 
	C296.401489,275.091949 299.921448,280.936249 303.515717,287.402283 
	C318.840759,258.466125 333.914429,230.004593 349.307648,200.873444 
M420.660858,500.979553 
	C425.755554,500.979553 430.850250,500.979553 435.812622,500.979553 
	C435.812622,410.255432 435.812622,320.237885 435.812622,228.906769 
	C429.933777,239.964828 424.494324,249.801788 419.488586,259.854736 
	C418.005524,262.833221 417.033081,266.418732 417.027130,269.728241 
	C416.892365,344.866425 416.924469,420.004944 416.926331,495.143372 
	C416.926361,496.476166 416.598022,497.945587 417.059082,499.096405 
	C417.398071,499.942505 418.778046,500.371552 420.660858,500.979553 
M397.528595,495.280701 
	C397.528595,431.612610 397.528595,367.944519 397.528595,304.276459 
	C390.995148,314.519897 385.399292,324.872620 380.066895,335.359283 
	C378.918030,337.618652 378.169678,340.359985 378.164246,342.881348 
	C378.054535,393.868530 378.078217,444.855988 378.088287,495.843414 
	C378.088593,497.452667 378.228668,499.061920 378.309875,500.805847 
	C384.796021,500.805847 390.899261,500.805847 397.288849,500.805847 
	C397.374512,499.158081 397.450806,497.691345 397.528595,495.280701 
z"/>
<path fill="#FBFDFD" opacity="1.000000" stroke="none" 
	d="
M57.859840,57.034103 
	C64.894447,56.745327 71.927818,56.379749 78.965240,56.266380 
	C79.830833,56.252434 81.066299,57.404079 81.545250,58.321163 
	C101.877243,97.252541 122.021912,136.282120 142.443039,175.166519 
	C178.399521,243.632217 214.520432,312.011536 250.567322,380.429779 
	C251.245697,381.717407 251.859604,383.038971 252.697662,384.738220 
	C245.263626,384.738220 238.343613,384.738220 231.125870,384.738220 
	C180.237930,288.200684 129.255951,191.484695 78.273964,94.768723 
	C77.940315,94.860085 77.606659,94.951439 77.273010,95.042793 
	C77.273010,230.184860 77.273010,365.326935 77.273010,500.597595 
	C70.615074,500.972748 64.427895,501.321381 58.114655,500.855225 
	C57.994030,354.699432 58.000145,209.358368 57.998852,64.017311 
	C57.998833,61.689575 57.908195,59.361839 57.859840,57.034103 
z"/>
<path fill="#EDAF45" opacity="1.000000" stroke="none" 
	d="
M476.553314,84.607574 
	C476.553314,84.607574 476.757568,84.180496 477.070496,83.872147 
	C477.614471,83.310898 477.669739,83.023979 477.549316,82.703041 
	C477.549316,82.703041 477.766449,82.280594 478.100281,81.945053 
	C478.515045,81.284866 478.596008,80.960213 478.676941,80.635559 
	C478.676971,80.635567 478.840820,80.207054 479.105042,79.915573 
	C479.569672,79.408424 479.595551,79.173424 479.446838,78.919083 
	C481.104065,75.756737 482.761292,72.594391 484.882477,69.013000 
	C485.492065,68.064980 485.637695,67.536003 485.783325,67.007019 
	C485.783356,67.007027 485.828735,66.878441 486.096130,66.690178 
	C486.429321,66.161942 486.495087,65.821968 486.560852,65.481995 
	C486.560852,65.481987 486.757996,65.060928 487.039795,64.771683 
	C487.506317,64.251038 487.521545,64.008682 487.367310,63.755367 
	C487.476715,63.569199 487.586090,63.383026 488.048279,62.856102 
	C488.616089,62.288666 488.662170,62.031460 488.539307,61.743725 
	C488.619537,61.579330 488.699799,61.414932 489.076660,60.924366 
	C489.589813,60.374699 489.621674,60.127277 489.468811,59.855927 
	C489.895355,59.071129 490.321899,58.286335 491.381042,57.218109 
	C497.399780,56.867970 502.796295,56.596573 508.165375,56.868126 
	C509.640106,56.942719 511.032715,58.641296 512.277588,59.934036 
	C506.013092,71.798935 499.934021,83.324478 493.619385,95.095810 
	C489.609131,102.528641 485.834473,109.715675 482.059784,116.902718 
	C482.059784,116.902718 481.794342,117.249771 481.472046,117.675896 
	C479.431335,121.730827 477.712860,125.359642 475.994415,128.988449 
	C475.994415,128.988449 475.998779,128.998199 475.725891,129.197632 
	C474.323029,131.596375 473.193024,133.795700 472.063049,135.995026 
	C472.063049,135.995026 471.971802,136.047440 471.758057,136.318176 
	C470.371552,139.061127 469.198792,141.533325 468.026031,144.005508 
	C468.026031,144.005508 467.810974,144.284973 467.517242,144.650879 
	C466.796967,146.005600 466.370453,146.994400 465.943909,147.983215 
	C465.943909,147.983215 465.746521,148.178864 465.502991,148.492493 
	C465.151062,149.177780 465.042633,149.549438 464.934204,149.921112 
	C464.934204,149.921112 464.953644,149.954636 464.669525,150.158401 
	C462.932739,153.227188 461.480072,156.092194 460.027405,158.957214 
	C460.027405,158.957214 459.797791,159.265564 459.494446,159.670364 
	C458.109192,162.358871 457.027313,164.642593 455.945404,166.926300 
	C455.945404,166.926300 455.712708,167.192368 455.405090,167.570007 
	C453.345154,171.574509 451.592865,175.201385 449.840576,178.828262 
	C449.840576,178.828262 450.002502,178.924667 449.678528,178.998718 
	C449.278778,179.402328 449.203033,179.731873 449.127258,180.061401 
	C449.127258,180.061401 448.978699,180.430847 448.658600,180.805481 
	C447.845490,182.425842 447.352509,183.671585 446.859497,184.917313 
	C446.859497,184.917313 446.933624,184.937576 446.671631,185.011276 
	C446.314880,185.419312 446.220154,185.753632 446.125397,186.087967 
	C446.125397,186.087967 445.962189,186.430634 445.634705,186.757019 
	C444.835785,187.995590 444.364380,188.907761 443.893005,189.819931 
	C443.893005,189.819931 443.835999,189.831940 443.593872,189.960358 
	C443.271271,190.409210 443.190826,190.729630 443.110352,191.050064 
	C443.110352,191.050064 442.965363,191.402603 442.691467,191.719849 
	C442.316498,192.378677 442.215363,192.720230 442.114258,193.061798 
	C442.114258,193.061798 441.929291,193.450821 441.615479,193.816681 
	C441.140411,194.768173 440.979156,195.353790 440.817871,195.939392 
	C440.817871,195.939392 440.890839,195.919479 440.579834,196.062897 
	C438.452362,199.772644 436.635925,203.338959 434.819458,206.905273 
	C434.819458,206.905273 434.913666,206.929260 434.598450,207.060364 
	C433.527100,208.791946 432.770935,210.392410 432.014771,211.992859 
	C432.014771,211.992859 431.984650,212.000336 431.762177,212.177216 
	C431.347351,212.863495 431.154999,213.372879 430.962677,213.882278 
	C430.962677,213.882278 430.876373,213.911499 430.650330,214.094391 
	C430.263367,214.783539 430.102417,215.289795 429.941467,215.796021 
	C419.592224,235.273727 409.219849,254.739166 398.898834,274.231842 
	C380.348389,309.266998 361.828827,344.318481 342.885590,379.792938 
	C342.333832,380.529297 342.192841,380.835846 342.051880,381.142426 
	C342.051880,381.142426 342.039948,381.027252 341.823242,381.184082 
	C341.416077,381.917847 341.225555,382.494751 341.035065,383.071686 
	C341.035065,383.071686 341.013214,383.010162 340.625671,383.065613 
	C332.464478,383.105316 324.690857,383.089600 316.917236,383.073853 
	C310.673126,371.528046 304.310181,360.044647 298.206421,348.425110 
	C277.015961,308.085327 255.910736,267.700745 234.782135,227.328506 
	C214.420273,188.421356 194.083359,149.501144 173.707626,110.601280 
	C164.832077,93.656731 155.886932,76.748642 147.101105,59.120193 
	C148.901031,57.970242 150.558731,57.214420 152.248123,57.135349 
	C157.554779,56.886971 162.873352,56.893181 168.187302,56.800804 
	C168.187302,56.800808 168.109375,56.791264 168.194977,56.998421 
	C168.448456,57.523983 168.709396,57.715370 169.063370,57.779739 
	C177.745712,74.263374 186.457306,90.731682 195.104950,107.233498 
	C221.982529,158.522446 248.839111,209.822403 275.697418,261.121460 
	C292.435150,293.090363 309.154175,325.069031 325.912018,357.027405 
	C326.817505,358.754181 328.004150,360.333527 329.894531,363.284271 
	C374.429199,278.576111 418.444214,194.856384 462.926697,110.758209 
	C463.518860,109.885445 463.643555,109.391151 463.768250,108.896858 
	C463.768250,108.896858 463.776642,108.832748 464.072571,108.699005 
	C464.520477,108.022652 464.672485,107.480049 464.824463,106.937439 
	C464.824463,106.937439 464.827820,106.870293 465.071442,106.703568 
	C465.374451,106.202103 465.433868,105.867371 465.493286,105.532639 
	C465.493286,105.532639 465.703430,105.148834 466.036591,104.855820 
	C466.606506,104.287834 466.669434,103.977448 466.558563,103.631653 
	C466.631653,103.477753 466.704712,103.323845 467.071472,102.848572 
	C467.569244,102.286461 467.599609,102.025307 467.456238,101.743729 
	C467.556732,101.585258 467.657196,101.426796 468.116394,100.916077 
	C468.701996,100.292618 468.775604,99.984665 468.695862,99.639969 
	C468.695862,99.639969 468.843170,99.233940 469.101105,98.944405 
	C469.561951,98.437515 469.594879,98.196861 469.457764,97.932892 
	C470.422882,96.045570 471.387970,94.158249 472.832397,91.871689 
	C473.456421,90.948128 473.601105,90.423828 473.745789,89.899521 
	C473.745789,89.899521 473.763672,89.823631 474.061096,89.692291 
	C474.510986,89.030724 474.663452,88.500504 474.815887,87.970276 
	C474.815887,87.970276 474.832611,87.878380 475.089966,87.722832 
	C475.469971,87.104248 475.592590,86.641212 475.715179,86.178177 
	C475.715179,86.178177 475.814667,85.930283 476.096863,85.720840 
	C476.607849,85.243256 476.665924,84.941978 476.553314,84.607574 
z"/>
<path fill="#FCFDFD" opacity="1.000000" stroke="none" 
	d="
M493.854950,94.850021 
	C499.934021,83.324478 506.013092,71.798935 512.403992,60.134151 
	C512.927246,60.282101 513.205139,60.379765 513.549561,60.287903 
	C513.552246,206.506302 513.554871,352.724701 513.362915,499.513367 
	C513.061707,500.330353 512.979553,500.584900 512.921753,500.847351 
	C506.809875,500.847351 500.697968,500.847351 494.114746,500.847351 
	C494.114746,367.916656 494.114746,235.348221 494.111755,101.890366 
	C494.024139,98.950638 493.939545,96.900322 493.854950,94.850021 
z"/>
<path fill="#ECAF46" opacity="1.000000" stroke="none" 
	d="
M191.016739,184.085373 
	C191.016739,184.085373 191.168457,184.230728 191.184677,184.642487 
	C191.475861,185.377625 191.750824,185.701004 192.025772,186.024384 
	C192.025772,186.024384 191.970383,186.008209 191.993988,186.291687 
	C192.361511,187.059006 192.705414,187.542847 193.049316,188.026688 
	C193.049316,188.026688 192.983124,188.002701 192.995239,188.283279 
	C193.358826,189.048370 193.710327,189.532867 194.061813,190.017380 
	C194.061813,190.017380 193.994156,189.999603 194.007385,190.279175 
	C194.377258,191.041626 194.733917,191.524506 195.090576,192.007370 
	C195.090576,192.007370 195.017105,191.984100 194.999481,192.303711 
	C195.698013,193.744598 196.414169,194.865860 197.130325,195.987122 
	C197.130325,195.987122 197.046036,195.958344 197.021118,196.299149 
	C198.693741,199.741058 200.391266,202.842178 202.088806,205.943283 
	C202.088806,205.943283 202.023727,205.995621 202.077728,206.232727 
	C202.430801,206.651932 202.729858,206.834030 203.028931,207.016144 
	C203.028931,207.016144 202.980148,207.006531 202.914368,207.373779 
	C204.604050,210.811996 206.359497,213.882950 208.114960,216.953918 
	C208.114960,216.953918 208.058502,216.993866 208.016632,217.328979 
	C209.196060,219.768127 210.417374,221.872162 211.638687,223.976196 
	C227.475555,253.687271 243.317566,283.395599 259.147522,313.110382 
	C270.009277,333.499298 280.858124,353.895111 291.699280,374.294983 
	C292.556000,375.907074 293.306915,377.575378 294.065430,379.943176 
	C292.869049,381.639801 291.677612,383.482727 290.565552,383.436035 
	C284.645264,383.187469 278.744812,382.465759 272.677979,381.896912 
	C272.518494,381.886017 272.199188,381.902771 272.199188,381.902771 
	C257.934204,354.445099 243.811462,326.912384 229.377258,299.543945 
	C187.899368,220.898453 146.291962,142.321259 104.759926,63.704311 
	C103.622940,61.552078 102.764397,59.252747 101.370064,56.105824 
	C109.017395,56.105824 115.756210,55.981216 122.480484,56.237724 
	C123.510635,56.277023 124.798088,57.903851 125.420792,59.084328 
	C145.981873,98.062500 166.476303,137.075821 187.005386,176.791626 
	C187.672836,178.403214 188.315460,179.307129 188.958099,180.211060 
	C188.958099,180.211060 189.094116,180.325012 189.122742,180.729584 
	C189.421524,181.467239 189.691666,181.800323 189.961807,182.133423 
	C189.961807,182.133423 190.137268,182.296890 190.186035,182.721420 
	C190.495453,183.459091 190.756104,183.772232 191.016739,184.085373 
z"/>
<path fill="#FCFDFD" opacity="1.000000" stroke="none" 
	d="
M458.097290,186.003189 
	C463.406158,176.254593 468.714996,166.505997 474.516479,155.852737 
	C474.516479,271.321411 474.516479,385.842926 474.516479,500.649750 
	C468.380157,500.649750 462.135406,500.649750 455.686829,499.873627 
	C455.509857,496.100586 455.560028,493.103638 455.560150,490.106720 
	C455.564453,392.852203 455.532898,295.597656 455.671204,198.343307 
	C455.677063,194.228790 457.252869,190.116501 458.097290,186.003189 
z"/>
<path fill="#FDFEFE" opacity="1.000000" stroke="none" 
	d="
M116.163376,498.986328 
	C114.717003,499.982147 113.328476,501.718140 111.813522,501.836548 
	C107.047447,502.208984 102.233871,501.973755 97.103127,501.973755 
	C97.103127,387.616455 97.103127,273.645538 97.103127,158.102203 
	C103.626144,170.501602 109.459335,181.589752 115.606476,193.332382 
	C115.945137,196.315887 115.991386,198.644897 115.991463,200.973907 
	C115.994690,298.485382 115.992859,395.996887 116.000481,493.508362 
	C116.000618,495.334351 116.106712,497.160339 116.163376,498.986328 
z"/>
<path fill="#ECAF46" opacity="1.000000" stroke="none" 
	d="
M468.213806,60.594856 
	C461.090851,74.428619 454.068359,88.315315 446.814819,102.080276 
	C440.398743,114.256027 433.646118,126.254021 427.181183,138.404495 
	C410.420197,169.905701 393.671875,201.413986 377.042267,232.984634 
	C364.972229,255.899109 353.122498,278.929504 341.128113,301.883942 
	C336.376892,310.976746 331.500275,320.003967 326.018768,330.305115 
	C324.029816,327.344116 322.740082,325.196655 321.230743,323.216583 
	C314.808960,314.791870 314.435516,307.598145 320.327484,297.409485 
	C337.285706,268.084473 352.325409,237.649567 368.104584,207.643204 
	C393.565643,159.225327 419.015289,110.801445 444.967407,61.992756 
	C445.641022,61.071922 445.816986,60.538441 445.992950,60.004959 
	C445.992950,60.004963 445.996582,59.998501 446.233704,59.834507 
	C446.589630,59.315643 446.708405,58.960773 446.827209,58.605904 
	C446.827209,58.605907 446.862610,58.269676 447.376984,58.075172 
	C453.608002,57.616982 459.327484,57.167496 465.038788,57.254555 
	C466.113831,57.270939 467.156281,59.426445 468.213806,60.594856 
z"/>
<path fill="#F6F8F9" opacity="1.000000" stroke="none" 
	d="
M134.995361,236.003952 
	C135.126144,234.855179 135.256927,233.706421 135.524353,231.357300 
	C137.910751,235.743896 139.545639,239.473190 141.803604,242.776581 
	C152.634003,258.621368 155.374054,275.919220 155.121918,295.060516 
	C154.244278,361.683136 154.780380,428.324402 154.778961,494.958557 
	C154.778931,496.759918 154.778946,498.561310 154.778946,501.507812 
	C147.967300,500.913361 141.610672,500.358643 135.233749,498.942322 
	C135.223419,417.873749 135.237488,337.666809 135.232513,257.459839 
	C135.232239,252.974564 135.074768,248.489304 134.990448,244.004028 
	C135.057571,243.248138 135.124710,242.492249 135.194672,240.959259 
	C135.130112,238.789429 135.062744,237.396683 134.995361,236.003952 
z"/>
<path fill="#F9FCFC" opacity="1.000000" stroke="none" 
	d="
M349.147888,201.208252 
	C333.914429,230.004593 318.840759,258.466125 303.515717,287.402283 
	C299.921448,280.936249 296.401489,275.091949 293.464325,268.968140 
	C292.752502,267.484039 293.472626,264.819702 294.361206,263.133911 
	C314.437103,225.046356 334.634247,187.022720 354.795898,148.980347 
	C370.519501,119.312057 386.272156,89.658920 401.867554,59.923344 
	C403.401733,56.998089 405.062805,55.833546 408.381561,56.016087 
	C413.854919,56.317146 419.356873,56.097809 426.008148,56.097809 
	C400.224640,104.765305 374.766144,152.819366 349.147888,201.208252 
z"/>
<path fill="#FDFEFE" opacity="1.000000" stroke="none" 
	d="
M420.177490,500.983002 
	C418.778046,500.371552 417.398071,499.942505 417.059082,499.096405 
	C416.598022,497.945587 416.926361,496.476166 416.926331,495.143372 
	C416.924469,420.004944 416.892365,344.866425 417.027130,269.728241 
	C417.033081,266.418732 418.005524,262.833221 419.488586,259.854736 
	C424.494324,249.801788 429.933777,239.964828 435.812622,228.906769 
	C435.812622,320.237885 435.812622,410.255432 435.812622,500.979553 
	C430.850250,500.979553 425.755554,500.979553 420.177490,500.983002 
z"/>
<path fill="#F5F8F9" opacity="1.000000" stroke="none" 
	d="
M397.527832,495.752655 
	C397.450806,497.691345 397.374512,499.158081 397.288849,500.805847 
	C390.899261,500.805847 384.796021,500.805847 378.309875,500.805847 
	C378.228668,499.061920 378.088593,497.452667 378.088287,495.843414 
	C378.078217,444.855988 378.054535,393.868530 378.164246,342.881348 
	C378.169678,340.359985 378.918030,337.618652 380.066895,335.359283 
	C385.399292,324.872620 390.995148,314.519897 397.528595,304.276459 
	C397.528595,367.944519 397.528595,431.612610 397.527832,495.752655 
z"/>
<path fill="#FDFEFF" opacity="1.000000" stroke="none" 
	d="
M173.856323,309.011169 
	C173.977234,308.031616 174.098160,307.052063 174.342163,305.075409 
	C180.761261,317.186127 186.810043,328.514832 192.734192,339.908386 
	C193.305084,341.006348 193.238281,342.506653 193.238678,343.820251 
	C193.254456,395.483124 193.244064,447.145996 193.230362,498.808868 
	C193.230225,499.305542 193.139709,499.802246 193.051132,500.712891 
	C186.830582,500.712891 180.575668,500.712891 174.158813,499.876556 
	C174.002869,446.334259 174.017670,393.628296 174.007584,340.922333 
	C174.005554,330.285278 173.909195,319.648224 173.856323,309.011169 
z"/>
<path fill="#24425E" opacity="1.000000" stroke="none" 
	d="
M457.744324,186.071899 
	C457.252869,190.116501 455.677063,194.228790 455.671204,198.343307 
	C455.532898,295.597656 455.564453,392.852203 455.560150,490.106720 
	C455.560028,493.103638 455.509857,496.100586 455.341736,499.545563 
	C454.801056,497.788757 454.053741,495.584137 454.052429,493.379028 
	C453.994049,395.465729 453.987091,297.552429 454.053650,199.639130 
	C454.056274,195.775223 454.736603,191.896545 455.336914,188.061646 
	C455.451141,187.331985 456.677887,186.776489 457.744324,186.071899 
z"/>
<path fill="#2D4454" opacity="1.000000" stroke="none" 
	d="
M57.645046,57.382290 
	C57.908195,59.361839 57.998833,61.689575 57.998852,64.017311 
	C58.000145,209.358368 57.994030,354.699432 57.917892,500.500671 
	C57.560436,499.018585 57.023125,497.076416 57.022625,495.134094 
	C56.985580,350.980530 56.989529,206.826950 57.011143,62.673393 
	C57.011391,61.025734 57.284508,59.378113 57.645046,57.382290 
z"/>
<path fill="#2B4252" opacity="1.000000" stroke="none" 
	d="
M116.373329,498.632996 
	C116.106712,497.160339 116.000618,495.334351 116.000481,493.508362 
	C115.992859,395.996887 115.994690,298.485382 115.991463,200.973907 
	C115.991386,198.644897 115.945137,196.315887 115.892174,193.523483 
	C116.244980,194.955292 116.958389,196.850296 116.959457,198.745712 
	C117.015015,296.943970 117.012192,395.142242 116.993782,493.340515 
	C116.993477,494.986938 116.726059,496.633301 116.373329,498.632996 
z"/>
<path fill="#24435F" opacity="1.000000" stroke="none" 
	d="
M134.753571,244.342941 
	C135.074768,248.489304 135.232239,252.974564 135.232513,257.459839 
	C135.237488,337.666809 135.223419,417.873749 135.109955,498.539093 
	C134.671677,497.078278 134.045273,495.159271 134.044113,493.239868 
	C133.994766,412.025970 133.998154,330.812012 134.022202,249.598083 
	C134.022690,247.959290 134.344666,246.320602 134.753571,244.342941 
z"/>
<path fill="#2B4153" opacity="1.000000" stroke="none" 
	d="
M173.525085,309.143829 
	C173.909195,319.648224 174.005554,330.285278 174.007584,340.922333 
	C174.017670,393.628296 174.002869,446.334259 173.923492,499.500061 
	C173.563782,497.687408 173.029129,495.415100 173.027328,493.142426 
	C172.981644,435.360901 172.988266,377.579346 173.000778,319.797791 
	C173.001541,316.290680 173.126602,312.783600 173.525085,309.143829 
z"/>
<path fill="#434B49" opacity="1.000000" stroke="none" 
	d="
M493.619385,95.095810 
	C493.939545,96.900322 494.024139,98.950638 494.024109,101.418442 
	C492.474609,103.166237 490.709351,104.287102 489.605927,105.869476 
	C487.140961,109.404358 485.006042,113.169388 482.398224,116.871689 
	C485.834473,109.715675 489.609131,102.528641 493.619385,95.095810 
z"/>
<path fill="#344138" opacity="1.000000" stroke="none" 
	d="
M295.903137,385.176422 
	C295.756073,385.469604 295.605988,386.020569 295.462311,386.018951 
	C288.396729,385.937103 281.331696,385.807800 274.611755,385.328369 
	C281.938965,385.040802 288.921051,385.108612 295.903137,385.176422 
z"/>
<path fill="#373F38" opacity="1.000000" stroke="none" 
	d="
M340.102966,385.158630 
	C339.821777,385.559753 339.532898,386.316010 339.260498,386.310120 
	C332.302521,386.160126 325.346313,385.930359 318.625977,385.390198 
	C325.942413,385.096771 333.022705,385.127716 340.102966,385.158630 
z"/>
<path fill="#D1B57C" opacity="1.000000" stroke="none" 
	d="
M296.144897,384.982483 
	C288.921051,385.108612 281.938965,385.040802 274.489380,384.953461 
	C274.021912,384.933929 274.002838,384.997528 273.938538,384.704468 
	C273.584839,384.112122 273.295410,383.812805 273.005981,383.513519 
	C273.005981,383.513519 273.071808,383.360809 273.011993,382.968689 
	C272.913940,382.353638 272.875732,382.130676 272.837494,381.907776 
	C278.744812,382.465759 284.645264,383.187469 290.565552,383.436035 
	C291.677612,383.482727 292.869049,381.639801 294.135437,380.301331 
	C294.960236,381.552063 295.673431,383.170319 296.144897,384.982483 
z"/>
<path fill="#D2B57D" opacity="1.000000" stroke="none" 
	d="
M340.345673,384.969727 
	C333.022705,385.127716 325.942413,385.096771 318.383362,385.081787 
	C317.596558,384.614624 317.288513,384.131500 316.948853,383.361115 
	C324.690857,383.089600 332.464478,383.105316 340.657532,383.072754 
	C340.914093,383.609863 340.751251,384.195312 340.345673,384.969727 
z"/>
<path fill="#D1BE91" opacity="1.000000" stroke="none" 
	d="
M468.443787,60.380684 
	C467.156281,59.426445 466.113831,57.270939 465.038788,57.254555 
	C459.327484,57.167496 453.608002,57.616982 447.483765,57.944107 
	C447.755280,57.332420 448.422028,56.085869 449.115509,56.070782 
	C455.880493,55.923611 462.649963,55.982189 469.956238,55.982189 
	C469.407532,57.772541 469.040649,58.969528 468.443787,60.380684 
z"/>
<path fill="#9FABB0" opacity="1.000000" stroke="none" 
	d="
M513.699829,59.860630 
	C513.205139,60.379765 512.927246,60.282101 512.589417,59.794792 
	C511.032715,58.641296 509.640106,56.942719 508.165375,56.868126 
	C502.796295,56.596573 497.399780,56.867970 491.552246,56.928265 
	C498.117706,56.616955 505.143677,56.234463 512.172974,56.158260 
	C512.720093,56.152325 513.290466,58.291290 513.699829,59.860630 
z"/>
<path fill="#C9B78A" opacity="1.000000" stroke="none" 
	d="
M167.859650,56.519806 
	C162.873352,56.893181 157.554779,56.886971 152.248123,57.135349 
	C150.558731,57.214420 148.901031,57.970242 147.035431,58.768528 
	C146.452759,58.312332 146.063477,57.504002 145.454178,56.238811 
	C153.161026,56.238811 160.346512,56.238811 167.859650,56.519806 
z"/>
<path fill="#434B49" opacity="1.000000" stroke="none" 
	d="
M450.187317,178.793961 
	C451.592865,175.201385 453.345154,171.574509 455.370728,167.743362 
	C453.940674,171.279282 452.237366,175.019470 450.187317,178.793961 
z"/>
<path fill="#434B49" opacity="1.000000" stroke="none" 
	d="
M476.328430,128.912109 
	C477.712860,125.359642 479.431335,121.730827 481.408661,117.884949 
	C479.999146,121.390511 478.330780,125.113144 476.328430,128.912109 
z"/>
<path fill="#434B49" opacity="1.000000" stroke="none" 
	d="
M435.145264,206.782196 
	C436.635925,203.338959 438.452362,199.772644 440.561920,196.029572 
	C439.060394,199.454926 437.265747,203.057037 435.145264,206.782196 
z"/>
<path fill="#D7C296" opacity="1.000000" stroke="none" 
	d="
M208.096710,216.591217 
	C206.359497,213.882950 204.604050,210.811996 202.925507,207.351562 
	C204.694427,210.050888 206.386444,213.139694 208.096710,216.591217 
z"/>
<path fill="#D0B686" opacity="1.000000" stroke="none" 
	d="
M202.167633,205.575287 
	C200.391266,202.842178 198.693741,199.741058 197.037384,196.257690 
	C198.801178,198.986053 200.523819,202.096680 202.167633,205.575287 
z"/>
<path fill="#434B49" opacity="1.000000" stroke="none" 
	d="
M460.358459,158.884583 
	C461.480072,156.092194 462.932739,153.227188 464.650330,150.161057 
	C463.506683,152.910614 462.098114,155.861282 460.358459,158.884583 
z"/>
<path fill="#434B49" opacity="1.000000" stroke="none" 
	d="
M468.362610,143.923401 
	C469.198792,141.533325 470.371552,139.061127 471.783844,136.364044 
	C470.915314,138.706543 469.807281,141.273926 468.362610,143.923401 
z"/>
<path fill="#D7C296" opacity="1.000000" stroke="none" 
	d="
M211.553818,223.651947 
	C210.417374,221.872162 209.196060,219.768127 208.014374,217.294464 
	C209.192337,219.059128 210.330643,221.193405 211.553818,223.651947 
z"/>
<path fill="#434B49" opacity="1.000000" stroke="none" 
	d="
M456.289307,166.861755 
	C457.027313,164.642593 458.109192,162.358871 459.453552,159.858200 
	C458.688416,162.026550 457.660797,164.411880 456.289307,166.861755 
z"/>
<path fill="#434B49" opacity="1.000000" stroke="none" 
	d="
M472.393311,135.907532 
	C473.193024,133.795700 474.323029,131.596375 475.721130,129.197906 
	C474.900696,131.272537 473.812134,133.546295 472.393311,135.907532 
z"/>
<path fill="#434B49" opacity="1.000000" stroke="none" 
	d="
M432.353760,211.911133 
	C432.770935,210.392410 433.527100,208.791946 434.569702,207.021179 
	C434.135010,208.510391 433.413879,210.169891 432.353760,211.911133 
z"/>
<path fill="#D0B686" opacity="1.000000" stroke="none" 
	d="
M197.111740,195.645447 
	C196.414169,194.865860 195.698013,193.744598 195.011810,192.267212 
	C195.725571,193.041992 196.409363,194.172882 197.111740,195.645447 
z"/>
<path fill="#434B49" opacity="1.000000" stroke="none" 
	d="
M447.215027,184.832336 
	C447.352509,183.671585 447.845490,182.425842 448.630127,181.002518 
	C448.471344,182.132416 448.020966,183.439880 447.215027,184.832336 
z"/>
<path fill="#434B49" opacity="1.000000" stroke="none" 
	d="
M444.235779,189.776215 
	C444.364380,188.907761 444.835785,187.995590 445.599426,186.943512 
	C445.454010,187.779892 445.016296,188.756195 444.235779,189.776215 
z"/>
<path fill="#D0B686" opacity="1.000000" stroke="none" 
	d="
M188.939896,179.866821 
	C188.315460,179.307129 187.672836,178.403214 187.058472,177.139526 
	C187.698395,177.694031 188.310043,178.608322 188.939896,179.866821 
z"/>
<path fill="#24435F" opacity="1.000000" stroke="none" 
	d="
M134.777679,236.269287 
	C135.062744,237.396683 135.130112,238.789429 135.094849,240.589905 
	C134.848145,239.509979 134.704071,238.022308 134.777679,236.269287 
z"/>
<path fill="#434B49" opacity="1.000000" stroke="none" 
	d="
M466.290833,147.887085 
	C466.370453,146.994400 466.796967,146.005600 467.487885,144.824738 
	C467.380768,145.685440 467.009277,146.738205 466.290833,147.887085 
z"/>
<path fill="#434B49" opacity="1.000000" stroke="none" 
	d="
M430.178467,215.657776 
	C430.102417,215.289795 430.263367,214.783539 430.660034,214.138916 
	C430.735657,214.506851 430.575562,215.013184 430.178467,215.657776 
z"/>
<path fill="#434B49" opacity="1.000000" stroke="none" 
	d="
M431.199097,213.728882 
	C431.154999,213.372879 431.347351,212.863495 431.769470,212.190918 
	C431.811371,212.543640 431.623444,213.059570 431.199097,213.728882 
z"/>
<path fill="#9FABB0" opacity="1.000000" stroke="none" 
	d="
M485.568604,67.177170 
	C485.637695,67.536003 485.492065,68.064980 485.102783,68.750259 
	C485.024048,68.386810 485.188965,67.867065 485.568604,67.177170 
z"/>
<path fill="#D2B57D" opacity="1.000000" stroke="none" 
	d="
M341.323120,382.939880 
	C341.225555,382.494751 341.416077,381.917847 341.880981,381.179688 
	C341.973969,381.615021 341.792572,382.211548 341.323120,382.939880 
z"/>
<path fill="#9FABB0" opacity="1.000000" stroke="none" 
	d="
M475.523499,86.316971 
	C475.592590,86.641212 475.469971,87.104248 475.120300,87.687286 
	C475.039429,87.356789 475.185608,86.906281 475.523499,86.316971 
z"/>
<path fill="#D1BE91" opacity="1.000000" stroke="none" 
	d="
M445.774597,60.185799 
	C445.816986,60.538441 445.641022,61.071922 445.227173,61.762272 
	C445.178253,61.401638 445.367249,60.884136 445.774597,60.185799 
z"/>
<path fill="#9FABB0" opacity="1.000000" stroke="none" 
	d="
M474.608887,88.139206 
	C474.663452,88.500504 474.510986,89.030724 474.090546,89.666740 
	C474.015656,89.284401 474.208771,88.796265 474.608887,88.139206 
z"/>
<path fill="#434B49" opacity="1.000000" stroke="none" 
	d="
M441.071289,195.760254 
	C440.979156,195.353790 441.140411,194.768173 441.564087,194.025833 
	C441.659241,194.439789 441.491974,195.010468 441.071289,195.760254 
z"/>
<path fill="#9FABB0" opacity="1.000000" stroke="none" 
	d="
M473.531555,90.065956 
	C473.601105,90.423828 473.456421,90.948128 473.068359,91.613739 
	C472.989105,91.247482 473.153229,90.739937 473.531555,90.065956 
z"/>
<path fill="#D0B686" opacity="1.000000" stroke="none" 
	d="
M195.069031,191.697510 
	C194.733917,191.524506 194.377258,191.041626 194.016647,190.245453 
	C194.357620,190.417313 194.702560,190.902481 195.069031,191.697510 
z"/>
<path fill="#9FABB0" opacity="1.000000" stroke="none" 
	d="
M463.562927,109.042282 
	C463.643555,109.391151 463.518860,109.885445 463.151581,110.472534 
	C463.058533,110.106125 463.208069,109.646919 463.562927,109.042282 
z"/>
<path fill="#D0B686" opacity="1.000000" stroke="none" 
	d="
M194.034317,189.712311 
	C193.710327,189.532867 193.358826,189.048370 193.006714,188.250000 
	C193.339676,188.426498 193.673248,188.916870 194.034317,189.712311 
z"/>
<path fill="#D0B686" opacity="1.000000" stroke="none" 
	d="
M193.029480,187.722046 
	C192.705414,187.542847 192.361511,187.059006 192.005859,186.265381 
	C192.332611,186.442871 192.671127,186.930145 193.029480,187.722046 
z"/>
<path fill="#9FABB0" opacity="1.000000" stroke="none" 
	d="
M464.613953,107.112045 
	C464.672485,107.480049 464.520477,108.022652 464.099670,108.681396 
	C464.021729,108.293907 464.212585,107.790283 464.613953,107.112045 
z"/>
<path fill="#9FABB0" opacity="1.000000" stroke="none" 
	d="
M466.372192,103.769096 
	C466.669434,103.977448 466.606506,104.287834 466.149475,104.668404 
	C465.901733,104.451439 465.987274,104.162285 466.372192,103.769096 
z"/>
<path fill="#9FABB0" opacity="1.000000" stroke="none" 
	d="
M478.470886,80.778633 
	C478.596008,80.960213 478.515045,81.284866 478.209473,81.734161 
	C478.078156,81.546440 478.171478,81.234070 478.470886,80.778633 
z"/>
<path fill="#9FABB0" opacity="1.000000" stroke="none" 
	d="
M465.316650,105.707123 
	C465.433868,105.867371 465.374451,106.202103 465.096924,106.681648 
	C464.877197,106.486984 464.964264,106.172035 465.316650,105.707123 
z"/>
<path fill="#9FABB0" opacity="1.000000" stroke="none" 
	d="
M486.371887,65.649918 
	C486.495087,65.821968 486.429321,66.161942 486.137939,66.636314 
	C486.002502,66.453094 486.092712,66.135468 486.371887,65.649918 
z"/>
<path fill="#9FABB0" opacity="1.000000" stroke="none" 
	d="
M487.245422,63.875824 
	C487.521545,64.008682 487.506317,64.251038 487.151123,64.567627 
	C486.947144,64.416229 486.994751,64.197380 487.245422,63.875824 
z"/>
<path fill="#9FABB0" opacity="1.000000" stroke="none" 
	d="
M488.383820,61.844742 
	C488.662170,62.031460 488.616089,62.288666 488.205566,62.572933 
	C487.982574,62.370308 488.055328,62.142056 488.383820,61.844742 
z"/>
<path fill="#9FABB0" opacity="1.000000" stroke="none" 
	d="
M489.320923,59.960087 
	C489.621674,60.127277 489.589813,60.374699 489.188843,60.673935 
	C488.952148,60.494381 489.008392,60.265907 489.320923,59.960087 
z"/>
<path fill="#D2B57D" opacity="1.000000" stroke="none" 
	d="
M342.313446,381.043762 
	C342.192841,380.835846 342.333832,380.529297 342.684143,380.072083 
	C342.787292,380.262634 342.681152,380.603851 342.313446,381.043762 
z"/>
<path fill="#344138" opacity="1.000000" stroke="none" 
	d="
M272.677979,381.896881 
	C272.875732,382.130676 272.913940,382.353638 272.945190,382.919159 
	C272.726257,382.979065 272.514252,382.696381 272.250732,382.158264 
	C272.199188,381.902771 272.518494,381.886017 272.677979,381.896881 
z"/>
<path fill="#434B49" opacity="1.000000" stroke="none" 
	d="
M465.160522,149.736588 
	C465.042633,149.549438 465.151062,149.177780 465.500671,148.631439 
	C465.623505,148.821854 465.505157,149.186966 465.160522,149.736588 
z"/>
<path fill="#344138" opacity="1.000000" stroke="none" 
	d="
M273.105103,383.814697 
	C273.295410,383.812805 273.584839,384.112122 273.970764,384.712311 
	C273.779602,384.714081 273.491913,384.414978 273.105103,383.814697 
z"/>
<path fill="#D1BE91" opacity="1.000000" stroke="none" 
	d="
M446.585754,58.761955 
	C446.708405,58.960773 446.589630,59.315643 446.234894,59.830925 
	C446.114075,59.633568 446.229187,59.275791 446.585754,58.761955 
z"/>
<path fill="#C9B78A" opacity="1.000000" stroke="none" 
	d="
M169.016449,57.524109 
	C168.709396,57.715370 168.448456,57.523983 168.208893,56.961708 
	C168.414642,56.901390 168.692078,57.084938 169.016449,57.524109 
z"/>
<path fill="#9FABB0" opacity="1.000000" stroke="none" 
	d="
M513.186646,500.817200 
	C512.979553,500.584900 513.061707,500.330353 513.334717,499.972015 
	C513.484619,500.169250 513.468079,500.478149 513.186646,500.817200 
z"/>
<path fill="#9FABB0" opacity="1.000000" stroke="none" 
	d="
M479.308655,79.023041 
	C479.595551,79.173424 479.569672,79.408424 479.199219,79.706406 
	C478.973022,79.545967 479.020111,79.325394 479.308655,79.023041 
z"/>
<path fill="#9FABB0" opacity="1.000000" stroke="none" 
	d="
M477.376648,82.829285 
	C477.669739,83.023979 477.614471,83.310898 477.177643,83.661072 
	C476.937805,83.458488 477.015167,83.190880 477.376648,82.829285 
z"/>
<path fill="#9FABB0" opacity="1.000000" stroke="none" 
	d="
M467.309601,101.864243 
	C467.599609,102.025307 467.569244,102.286461 467.179382,102.616913 
	C466.948944,102.442215 467.005371,102.201591 467.309601,101.864243 
z"/>
<path fill="#9FABB0" opacity="1.000000" stroke="none" 
	d="
M468.499847,99.771378 
	C468.775604,99.984665 468.701996,100.292618 468.258606,100.673203 
	C468.003387,100.451859 468.090607,100.158592 468.499847,99.771378 
z"/>
<path fill="#434B49" opacity="1.000000" stroke="none" 
	d="
M449.315857,179.904068 
	C449.203033,179.731873 449.278778,179.402328 449.594727,178.958755 
	C449.843018,179.188705 449.732849,179.489380 449.315857,179.904068 
z"/>
<path fill="#9FABB0" opacity="1.000000" stroke="none" 
	d="
M476.376587,84.740631 
	C476.665924,84.941978 476.607849,85.243256 476.162598,85.604568 
	C475.926239,85.390907 476.010864,85.116226 476.376587,84.740631 
z"/>
<path fill="#D7C296" opacity="1.000000" stroke="none" 
	d="
M203.001572,206.720016 
	C202.729858,206.834030 202.430801,206.651932 202.094833,206.194641 
	C202.363358,206.087585 202.668793,206.255737 203.001572,206.720016 
z"/>
<path fill="#D0B686" opacity="1.000000" stroke="none" 
	d="
M189.935974,181.798676 
	C189.691666,181.800323 189.421524,181.467239 189.087860,180.811157 
	C189.319626,180.813431 189.614883,181.138687 189.935974,181.798676 
z"/>
<path fill="#D0B686" opacity="1.000000" stroke="none" 
	d="
M190.987396,183.766998 
	C190.756104,183.772232 190.495453,183.459091 190.172974,182.840622 
	C190.393463,182.839737 190.675751,183.144196 190.987396,183.766998 
z"/>
<path fill="#D0B686" opacity="1.000000" stroke="none" 
	d="
M191.983673,185.694763 
	C191.750824,185.701004 191.475861,185.377625 191.132782,184.733826 
	C191.356964,184.730652 191.649261,185.047913 191.983673,185.694763 
z"/>
<path fill="#434B49" opacity="1.000000" stroke="none" 
	d="
M446.327545,185.934647 
	C446.220154,185.753632 446.314880,185.419312 446.663177,184.973801 
	C446.787689,185.168854 446.658691,185.475082 446.327545,185.934647 
z"/>
<path fill="#434B49" opacity="1.000000" stroke="none" 
	d="
M442.321594,192.899857 
	C442.215363,192.720230 442.316498,192.378677 442.670044,191.909241 
	C442.791321,192.100220 442.660156,192.419067 442.321594,192.899857 
z"/>
<path fill="#434B49" opacity="1.000000" stroke="none" 
	d="
M443.296234,190.901093 
	C443.190826,190.729630 443.271271,190.409210 443.590515,189.989273 
	C443.827332,190.222992 443.711609,190.510437 443.296234,190.901093 
z"/>
<path fill="#9FABB0" opacity="1.000000" stroke="none" 
	d="
M469.309937,98.038559 
	C469.594879,98.196861 469.561951,98.437515 469.188873,98.747093 
	C468.950958,98.583618 468.998779,98.351921 469.309937,98.038559 
z"/>
</svg>